<svg width="162" height="34" viewBox="0 0 162 34" fill="none" xmlns="http://www.w3.org/2000/svg">
<g clip-path="url(#clip0_101_29)">
<path d="M19.4856 6.7838L10.1837 12.7212L19.4856 18.6585L10.1837 24.5959L0.881836 18.609L10.1837 12.6717L0.881836 6.7838L10.1837 0.846436L19.4856 6.7838ZM10.1342 26.476L19.4361 20.5387L28.738 26.476L19.4361 32.4134L10.1342 26.476ZM19.4856 18.609L28.7875 12.6717L19.4856 6.7838L28.738 0.846436L38.0398 6.7838L28.738 12.7212L38.0398 18.6585L28.738 24.5959L19.4856 18.609Z" fill="white"/>
<path d="M45.313 6.78374H52.8336C57.633 6.78374 61.5913 9.5545 61.5913 15.8877V17.2236C61.5913 23.6063 57.8804 26.476 52.9821 26.476H45.313V6.78374ZM49.5186 10.3462V22.8641H52.7347C55.456 22.8641 57.2867 21.0829 57.2867 17.1246V16.0856C57.2867 12.1274 55.357 10.3462 52.5863 10.3462H49.5186ZM63.8178 10.5441H67.1823L67.7265 14.2549C68.3698 11.7315 70.0025 10.3956 72.9712 10.3956H74.0103V14.6507H72.2785C68.8645 14.6507 68.0234 15.8382 68.0234 19.2027V26.5255H63.8673V10.5441H63.8178ZM74.8514 18.8564V18.4111C74.8514 13.0674 78.2654 10.1482 82.9163 10.1482C87.6662 10.1482 90.9812 13.0674 90.9812 18.4111V18.8564C90.9812 24.101 87.7652 26.9213 82.9163 26.9213C77.7706 26.8718 74.8514 24.101 74.8514 18.8564ZM86.7261 18.8069V18.4111C86.7261 15.4424 85.2418 13.6612 82.8668 13.6612C80.5414 13.6612 79.0075 15.294 79.0075 18.4111V18.8069C79.0075 21.6766 80.4919 23.3094 82.8668 23.3094C85.2418 23.2599 86.7261 21.6766 86.7261 18.8069ZM93.1583 10.5441H96.6217L97.0175 13.5622C97.8587 11.5336 99.6399 10.1482 102.262 10.1482C106.319 10.1482 108.991 13.0674 108.991 18.4605V18.9058C108.991 24.1505 106.023 26.9213 102.262 26.9213C99.7388 26.9213 98.0071 25.7833 97.166 23.9526V32.0175H93.1088L93.1583 10.5441ZM104.786 18.8069V18.4605C104.786 15.294 103.153 13.7107 100.976 13.7107C98.6503 13.7107 97.1165 15.4919 97.1165 18.4605V18.7574C97.1165 21.5777 98.6008 23.3589 100.926 23.3589C103.301 23.3094 104.786 21.7756 104.786 18.8069ZM115.127 23.5568L114.78 26.476H111.218V5.20044H115.275V13.3643C116.166 11.2862 117.947 10.1482 120.47 10.1482C124.28 10.1977 127.1 12.8201 127.1 18.1142V18.609C127.1 23.9031 124.428 26.9213 120.371 26.9213C117.699 26.8718 115.968 25.6349 115.127 23.5568ZM122.845 18.609V18.2132C122.845 15.294 121.262 13.6612 119.035 13.6612C116.759 13.6612 115.176 15.4919 115.176 18.2626V18.609C115.176 21.5777 116.71 23.3094 118.986 23.3094C121.41 23.3094 122.845 21.7756 122.845 18.609ZM128.881 18.8564V18.4111C128.881 13.0674 132.295 10.1482 136.946 10.1482C141.696 10.1482 145.011 13.0674 145.011 18.4111V18.8564C145.011 24.101 141.746 26.9213 136.946 26.9213C131.801 26.8718 128.881 24.101 128.881 18.8564ZM140.806 18.8069V18.4111C140.806 15.4424 139.321 13.6612 136.946 13.6612C134.621 13.6612 133.087 15.294 133.087 18.4111V18.8069C133.087 21.6766 134.571 23.3094 136.946 23.3094C139.321 23.2599 140.806 21.6766 140.806 18.8069ZM150.454 18.2132L144.863 10.5441H149.662L152.878 15.3434L156.144 10.5441H160.894L155.204 18.1637L161.191 26.476H156.49L152.829 21.1818L149.266 26.476H144.368L150.454 18.2132Z" fill="white"/>
</g>
<defs>
<clipPath id="clip0_101_29">
<rect width="160.309" height="32.19" fill="white" transform="translate(0.881836 0.831787)"/>
</clipPath>
</defs>
</svg>
