<svg width="160" height="35" viewBox="0 0 160 35" fill="none" xmlns="http://www.w3.org/2000/svg">
<g clip-path="url(#clip0_441_299)">
<path d="M66.5118 6.82178V27.2218H62.9701V11.2134H62.9229L56.5951 27.2218H54.234L47.7645 11.2134H47.7173V27.2218H44.459V6.82178H49.559L55.4145 21.9329H55.509L61.6951 6.82178H66.5118ZM69.4395 8.38011C69.4395 7.81345 69.6284 7.34122 70.0534 6.96345C70.4784 6.58567 70.9507 6.39678 71.5173 6.39678C72.1312 6.39678 72.6507 6.58567 73.0284 6.96345C73.4062 7.34122 73.6423 7.81345 73.6423 8.38011C73.6423 8.94678 73.4534 9.419 73.0284 9.79678C72.6034 10.1746 72.1312 10.3634 71.5173 10.3634C70.9034 10.3634 70.4312 10.1746 70.0534 9.79678C69.6756 9.37178 69.4395 8.89956 69.4395 8.38011ZM73.2645 12.5829V27.2218H69.8173V12.5829H73.2645ZM83.7007 24.719C84.2201 24.719 84.7868 24.6246 85.4006 24.3412C86.0145 24.1051 86.5812 23.7746 87.1007 23.3968V26.6079C86.534 26.9384 85.9201 27.1746 85.2118 27.3162C84.5034 27.4579 83.7479 27.5523 82.8979 27.5523C80.7257 27.5523 78.9784 26.8912 77.6562 25.5218C76.2868 24.1523 75.6257 22.4051 75.6257 20.3273C75.6257 17.9662 76.334 16.0301 77.7034 14.519C79.0729 13.0079 81.009 12.2523 83.559 12.2523C84.2201 12.2523 84.8812 12.3468 85.4951 12.4884C86.1562 12.6301 86.6756 12.8662 87.0534 13.0551V16.3607C86.534 15.9829 85.9673 15.6523 85.4479 15.4634C84.8812 15.2746 84.3145 15.1329 83.7479 15.1329C82.3784 15.1329 81.2923 15.5579 80.4423 16.4551C79.5923 17.3523 79.2145 18.5329 79.2145 20.044C79.2145 21.5079 79.6395 22.6884 80.4423 23.4912C81.2451 24.294 82.3312 24.719 83.7007 24.719ZM96.8756 12.3468C97.159 12.3468 97.3951 12.3468 97.6312 12.394C97.8673 12.4412 98.0562 12.4884 98.1979 12.5357V16.0301C98.009 15.8884 97.7729 15.7468 97.3951 15.6523C97.0173 15.5579 96.6395 15.4634 96.1201 15.4634C95.2701 15.4634 94.5618 15.8412 93.9951 16.5496C93.4284 17.2579 93.0979 18.344 93.0979 19.8551V27.2218H89.6506V12.5829H93.0979V14.8968H93.1451C93.4757 14.094 93.9479 13.4801 94.5618 13.0079C95.2229 12.5829 95.9784 12.3468 96.8756 12.3468ZM98.3868 20.1384C98.3868 17.7301 99.0951 15.794 100.417 14.3773C101.787 12.9607 103.676 12.2523 106.084 12.2523C108.351 12.2523 110.145 12.9134 111.42 14.2829C112.695 15.6523 113.356 17.494 113.356 19.8079C113.356 22.169 112.648 24.0579 111.326 25.4746C109.956 26.8912 108.115 27.5996 105.753 27.5996C103.487 27.5996 101.692 26.9384 100.37 25.6162C99.0479 24.2468 98.3868 22.4051 98.3868 20.1384ZM101.976 19.9968C101.976 21.5079 102.306 22.6884 103.015 23.4912C103.723 24.294 104.715 24.719 105.99 24.719C107.217 24.719 108.209 24.3412 108.87 23.4912C109.531 22.6884 109.862 21.5079 109.862 19.9023C109.862 18.344 109.531 17.1634 108.87 16.3134C108.209 15.5107 107.217 15.0857 106.037 15.0857C104.762 15.0857 103.817 15.5107 103.109 16.3607C102.306 17.2579 101.976 18.4384 101.976 19.9968ZM118.503 16.4551C118.503 16.9273 118.645 17.3523 118.976 17.6357C119.306 17.919 119.967 18.2496 121.053 18.6746C122.423 19.2412 123.415 19.8551 123.934 20.5162C124.501 21.2246 124.784 22.0273 124.784 23.019C124.784 24.3884 124.265 25.4746 123.178 26.3246C122.14 27.1746 120.676 27.5523 118.881 27.5523C118.267 27.5523 117.606 27.4579 116.851 27.3162C116.095 27.1746 115.481 26.9857 114.962 26.7496V23.3496C115.576 23.7746 116.284 24.1523 116.992 24.3884C117.701 24.6246 118.362 24.7662 118.976 24.7662C119.731 24.7662 120.345 24.6718 120.676 24.4357C121.053 24.1996 121.242 23.869 121.242 23.3496C121.242 22.8773 121.053 22.4996 120.676 22.1218C120.298 21.7912 119.542 21.4134 118.503 20.9884C117.228 20.469 116.331 19.8551 115.812 19.194C115.292 18.5329 115.009 17.6829 115.009 16.644C115.009 15.3218 115.528 14.2357 116.567 13.3857C117.606 12.5357 118.976 12.1107 120.628 12.1107C121.148 12.1107 121.715 12.1579 122.328 12.2996C122.942 12.4412 123.509 12.5829 123.934 12.7246V16.0773C123.462 15.794 122.942 15.5107 122.328 15.2746C121.715 15.0384 121.101 14.944 120.534 14.944C119.873 14.944 119.353 15.0857 119.023 15.3218C118.692 15.6523 118.503 15.9829 118.503 16.4551ZM126.248 20.1384C126.248 17.7301 126.956 15.794 128.278 14.3773C129.648 12.9607 131.537 12.2523 133.945 12.2523C136.212 12.2523 138.006 12.9134 139.281 14.2829C140.556 15.6523 141.217 17.494 141.217 19.8079C141.217 22.169 140.509 24.0579 139.187 25.4746C137.817 26.8912 135.976 27.5996 133.615 27.5996C131.348 27.5996 129.553 26.9384 128.231 25.6162C126.956 24.2468 126.248 22.4051 126.248 20.1384ZM129.837 19.9968C129.837 21.5079 130.167 22.6884 130.876 23.4912C131.584 24.294 132.576 24.719 133.851 24.719C135.078 24.719 136.07 24.3412 136.731 23.4912C137.392 22.6884 137.723 21.5079 137.723 19.9023C137.723 18.344 137.392 17.1634 136.731 16.3134C136.07 15.5107 135.078 15.0857 133.898 15.0857C132.623 15.0857 131.678 15.5107 130.97 16.3607C130.215 17.2579 129.837 18.4384 129.837 19.9968ZM152.692 15.4162H147.545V27.2218H144.051V15.4162H141.595V12.5829H144.051V10.5523C144.051 9.04122 144.57 7.76622 145.562 6.77456C146.553 5.78289 147.828 5.31067 149.387 5.31067C149.812 5.31067 150.19 5.35789 150.52 5.35789C150.851 5.35789 151.134 5.45234 151.37 5.54678V8.52178C151.276 8.47456 151.04 8.38011 150.756 8.28567C150.473 8.19122 150.142 8.144 149.765 8.144C149.056 8.144 148.49 8.38011 148.112 8.80511C147.734 9.23011 147.545 9.93845 147.545 10.7884V12.5357H152.692V9.23011L156.14 8.19122V12.5357H159.634V15.369H156.14V22.2162C156.14 23.1134 156.328 23.7273 156.612 24.1051C156.942 24.4829 157.462 24.6718 158.17 24.6718C158.359 24.6718 158.595 24.6246 158.878 24.5301C159.162 24.4357 159.398 24.3412 159.587 24.1996V27.0329C159.351 27.1746 159.02 27.269 158.501 27.3634C157.981 27.4579 157.509 27.5051 156.99 27.5051C155.526 27.5051 154.44 27.1273 153.731 26.3718C153.023 25.6162 152.645 24.4357 152.645 22.8773L152.692 15.4162Z" fill="white"/>
<path d="M16.3619 0.0217285H0.211914V16.1717H16.3619V0.0217285Z" fill="white"/>
<path d="M34.212 0.0217285H18.062V16.1717H34.212V0.0217285Z" fill="white"/>
<path d="M16.3619 17.8717H0.211914V34.0217H16.3619V17.8717Z" fill="white"/>
<path d="M34.212 17.8717H18.062V34.0217H34.212V17.8717Z" fill="white"/>
</g>
<defs>
<clipPath id="clip0_441_299">
<rect width="159.422" height="34" fill="white" transform="translate(0.211914 0.0217285)"/>
</clipPath>
</defs>
</svg>
