<svg width="159" height="79" viewBox="0 0 159 79" fill="none" xmlns="http://www.w3.org/2000/svg">
<path d="M49.4906 25.1025C49.4745 25.0022 49.4255 24.91 49.3513 24.8405C49.2771 24.771 49.1818 24.7282 49.0806 24.7187C48.9169 24.6925 45.3213 24.4437 45.3213 24.4437L42.5797 21.7021C42.3334 21.427 41.7859 21.5082 41.5789 21.5658C41.5527 21.5658 41.0314 21.7296 40.1813 22.006C39.3534 19.6141 37.889 17.4188 35.3111 17.4188H35.0911C34.351 16.4625 33.4472 16.0211 32.6809 16.0211C26.6764 16.0473 23.813 23.5372 22.9092 27.3647L18.7123 28.6523C17.4247 29.0623 17.3762 29.0924 17.206 30.3198L13.668 57.6086L40.1905 62.573L54.5651 59.4738C54.5651 59.4476 49.5181 25.3645 49.4919 25.1052L49.4906 25.1025ZM38.7103 22.467C38.0423 22.6871 37.2694 22.9072 36.4625 23.1547V22.6609C36.4887 21.427 36.3014 20.1983 35.915 19.0247C37.2589 19.2316 38.1628 20.7406 38.7103 22.467ZM34.296 19.3417C34.7348 20.6345 34.9509 21.9968 34.8959 23.363V23.6093L30.2589 25.0501C31.1667 21.6615 32.8394 19.9861 34.2934 19.3561L34.296 19.3417ZM32.5146 17.6742C32.7896 17.6807 33.0555 17.7659 33.2821 17.9204C31.3474 18.8216 29.3027 21.0956 28.4251 25.6488L24.7574 26.7726C25.7922 23.3172 28.2064 17.6663 32.5119 17.6663L32.5146 17.6742Z" fill="#898989"/>
<path d="M49.082 24.7175C48.9183 24.6913 45.3227 24.4424 45.3227 24.4424L42.5811 21.7008C42.4802 21.5961 42.3427 21.5384 42.1973 21.5371L40.1958 62.5679L54.5704 59.4687L49.4933 25.1262C49.4593 24.9166 49.2942 24.7489 49.0834 24.7162L49.082 24.7175Z" fill="#696969"/>
<path d="M35.3099 32.6711L33.5258 37.9368C32.4478 37.4129 31.2676 37.1339 30.0704 37.1116C27.2711 37.1116 27.1362 38.8668 27.1362 39.3069C27.1362 41.704 33.4171 42.6262 33.4171 48.277C33.4171 52.7201 30.5917 55.5731 26.8061 55.5731C22.253 55.5731 19.9214 52.7476 19.9214 52.7476L21.1317 48.7132C21.1317 48.7132 23.5157 50.7697 25.5486 50.7697C25.7916 50.7793 26.034 50.7394 26.2611 50.6525C26.4882 50.5655 26.6953 50.4333 26.8697 50.2639C27.0442 50.0945 27.1824 49.8914 27.2759 49.6669C27.3695 49.4425 27.4164 49.2013 27.4139 48.9582C27.4139 45.8013 22.2569 45.6651 22.2569 40.5094C22.2569 36.1737 25.3823 31.9493 31.6645 31.9493C34.1336 31.986 35.3138 32.6698 35.3138 32.6698L35.3099 32.6711Z" fill="white"/>
<path d="M67.0455 40.5146C66.0198 39.9645 65.4893 39.489 65.4893 38.838C65.4893 38.0127 66.2098 37.4796 67.3795 37.4796C68.2478 37.4984 69.1041 37.6857 69.901 38.0311L70.8467 35.1572C70.8467 35.1572 69.9796 34.4865 67.4384 34.4865C63.8939 34.4865 61.4313 36.5169 61.4313 39.3698C61.4313 40.9836 62.5735 42.2253 64.1087 43.1108C65.3492 43.8312 65.7854 44.308 65.7854 45.0599C65.7854 45.8118 65.175 46.4392 64.0131 46.4392C62.3011 46.4392 60.686 45.5537 60.686 45.5537L59.6826 48.4276C59.6826 48.4276 61.1798 49.431 63.6804 49.431C67.3218 49.431 69.9416 47.6391 69.9416 44.401C69.9613 42.6484 68.6409 41.4276 67.0599 40.5015L67.0455 40.5146ZM81.5773 34.4695C79.7854 34.4695 78.3681 35.317 77.2835 36.6256L77.2232 36.6059L78.7794 28.4637H74.7253L70.7865 49.1991H74.8432L76.2015 42.1101C76.7333 39.4327 78.1179 37.777 79.4107 37.777C80.3146 37.777 80.6709 38.3874 80.6709 39.2742C80.6709 39.8767 80.6106 40.4753 80.494 41.0661L78.9588 49.1795H83.0155L84.611 40.7962C84.7852 39.9278 84.8861 39.0462 84.9057 38.1634C84.8861 35.8789 83.6849 34.501 81.5786 34.501L81.5773 34.4695ZM94.0605 34.4695C89.1772 34.4695 85.9471 38.8812 85.9471 43.7697C85.9471 46.9213 87.8962 49.4415 91.5403 49.4415C96.3305 49.4415 99.5751 45.1477 99.5751 40.1413C99.5751 37.2268 97.863 34.4695 94.067 34.4695H94.0605ZM92.0694 46.3436C90.6901 46.3436 90.1007 45.1647 90.1007 43.7107C90.1007 41.387 91.2979 37.587 93.509 37.587C94.9459 37.587 95.4254 38.8275 95.4254 40.03C95.4201 42.5253 94.2203 46.3436 92.0721 46.3436H92.0694ZM109.949 34.4695C107.199 34.4695 105.656 36.864 105.656 36.864H105.595L105.835 34.7079H102.242L101.417 40.085L98.6005 54.9338H102.639L103.763 48.9267H103.841C103.841 48.9267 104.667 49.4585 106.225 49.4585C110.991 49.4585 114.102 44.5753 114.102 39.6396C114.121 36.9216 112.904 34.4813 109.947 34.4813L109.949 34.4695ZM106.069 46.4025C105.457 46.4147 104.862 46.2043 104.393 45.8105L105.063 42.0092C105.543 39.4877 106.855 37.794 108.273 37.794C109.513 37.794 109.886 38.9362 109.886 40.0208C109.893 42.6628 108.341 46.4038 106.075 46.4038L106.069 46.4025ZM119.915 28.6405C119.294 28.6366 118.697 28.8829 118.261 29.3243C117.824 29.7657 117.582 30.3643 117.606 30.9852C117.606 32.1825 118.374 33.0155 119.522 33.0155H119.582C119.895 33.028 120.207 32.9761 120.5 32.8632C120.792 32.7503 121.058 32.5786 121.281 32.3589C121.504 32.1392 121.68 31.8761 121.798 31.5857C121.915 31.2954 121.972 30.984 121.965 30.6709C121.965 29.492 121.176 28.6405 119.935 28.6405H119.915ZM114.248 49.1598H118.305L121.061 34.7904H116.99M131.399 34.7708H128.565L128.704 34.1001C128.944 32.7208 129.768 31.4804 131.099 31.4804C131.54 31.4805 131.978 31.5468 132.399 31.6768L133.183 28.503C133.183 28.503 132.462 28.1493 130.977 28.1493C129.531 28.1134 128.12 28.5951 126.999 29.5077C125.619 30.6866 124.968 32.3816 124.641 34.0962L124.51 34.7669H122.62L122.028 37.8189H123.918L121.762 49.1625H125.833L127.989 37.8189H130.787L131.337 34.7669L131.399 34.7708ZM141.168 34.7904L137.484 44.6761H137.424L136.421 34.7904H132.145L134.588 47.9836C134.647 48.2091 134.619 48.4484 134.51 48.6542C133.979 49.6327 133.223 50.4697 132.304 51.0972C131.599 51.5818 130.83 51.9669 130.019 52.2394L131.143 55.6844C132.629 55.2866 133.993 54.5264 135.113 53.472C136.964 51.7377 138.676 49.0603 140.432 45.4162L145.393 34.7826H141.166L141.168 34.7904Z" fill="white"/>
</svg>
