<svg width="83" height="35" viewBox="0 0 83 35" fill="none" xmlns="http://www.w3.org/2000/svg">
<path fill-rule="evenodd" clip-rule="evenodd" d="M82.5769 17.9631C82.5769 12.1275 79.7509 7.5216 74.3467 7.5216C68.9227 7.5216 65.6385 12.1266 65.6385 17.9165C65.6385 24.7783 69.5137 28.2429 75.0755 28.2429C77.7885 28.2429 79.8401 27.6281 81.39 26.7615V22.2021C79.8401 22.9776 78.0622 23.4555 75.8053 23.4555C73.5941 23.4555 71.6337 22.6801 71.3828 19.9909H82.5283C82.5283 19.6934 82.5739 18.5094 82.5739 17.9621L82.5769 17.9631ZM71.3253 15.7984C71.3253 13.2223 72.898 12.1513 74.3348 12.1513C75.725 12.1513 77.2074 13.2223 77.2074 15.7984H71.3253ZM56.851 7.52358C54.617 7.52358 53.1821 8.57169 52.3829 9.30151L52.0854 7.88849H47.061V34.4681L52.7597 33.2604L52.7825 26.8091C53.6036 27.402 54.8113 28.2449 56.8183 28.2449C60.8987 28.2449 64.6142 24.9726 64.6142 17.736C64.5914 11.125 60.8303 7.52259 56.8401 7.52259L56.851 7.52358ZM55.4826 23.2304C54.138 23.2304 53.3408 22.7515 52.7924 22.1595L52.7696 13.7012C53.3626 13.0398 54.1826 12.5847 55.4826 12.5847C57.557 12.5847 58.9929 14.91 58.9929 17.8956C58.9929 20.9498 57.5798 23.2304 55.4826 23.2304ZM39.2205 6.17898L44.942 4.94941V0.322632L39.2205 1.53039V6.17898ZM39.2205 7.91129H44.942V27.8572H39.2205V7.91129ZM33.0875 9.597L32.7226 7.91129H27.7983V27.8592H33.497V14.3398C34.8416 12.5847 37.1213 12.904 37.8283 13.1548V7.91229C37.0985 7.63861 34.4321 7.13686 33.0865 9.59799L33.0875 9.597ZM21.6901 2.95333L16.1283 4.14027L16.1055 22.3995C16.1055 25.7729 18.636 28.2578 22.0094 28.2578C23.8786 28.2578 25.246 27.9157 25.9986 27.5042V22.8764C25.2688 23.1739 21.6673 24.221 21.6673 20.8476V12.7671H25.9986V7.91129H21.6653L21.6901 2.95333ZM6.28078 13.6903C6.28078 12.8008 7.01059 12.4607 8.21835 12.4607C10.1898 12.5027 12.1246 13.0017 13.8704 13.9184V8.57269C11.9785 7.81908 10.1093 7.52457 8.21835 7.52457C3.59059 7.52457 0.513672 9.94109 0.513672 13.9759C0.513672 20.2675 9.17623 19.264 9.17623 21.978C9.17623 23.0261 8.26396 23.3682 6.98778 23.3682C5.09582 23.3682 2.67931 22.5928 0.764545 21.5437V26.9677C2.88457 27.88 5.02839 28.2568 6.98778 28.2568C11.7296 28.2568 14.9899 25.9087 14.9899 21.8283C14.9671 15.0359 6.28078 16.2437 6.28078 13.6903Z" fill="white"/>
</svg>
