<svg width="122.5" height="25" viewBox="0 0 98 20" fill="none" xmlns="http://www.w3.org/2000/svg" id="svg1614897449_3106">
<g clip-path="url(#svg1614897449_3106_clip0_452_38965)">
<path d="M9.46385 8.98915H6.51809V19.6722H2.80163V8.98915H0V5.73778H2.80163V2.40445L6.51809 1.63942V5.73778H9.46385V8.98915Z" fill="white"></path>
<path d="M24.9718 10.8197V19.6721H21.2554V11.9672C21.2554 10.082 19.9975 8.85246 18.0821 8.85246C16.0237 8.85246 14.6515 10.1047 14.6515 12.0219V19.6721H10.9351V0H14.6515V7.56831C15.7664 6.14754 17.3674 5.40528 19.2828 5.40528C22.7134 5.40984 24.9718 7.53643 24.9718 10.8197Z" fill="white"></path>
<path d="M35.416 5.5191V9.18031C32.6763 9.18031 31.1564 10.683 31.1564 13.0328V19.6721H27.4399V5.73768H31.1564V7.78687C32.2141 6.3661 33.7007 5.5191 35.416 5.5191Z" fill="white"></path>
<path d="M51.4255 13.9344H39.8473C40.3333 15.7104 41.8199 16.8579 43.7639 16.8579C45.3648 16.8579 46.7084 16.1475 47.2802 15.1912H51.2551C50.1962 18.0373 47.3088 20 43.7067 20C39.2469 20 35.8735 16.8579 35.8735 12.7049C35.8735 8.5519 39.2469 5.40982 43.7067 5.40982C48.1664 5.40982 51.5398 8.5519 51.5398 12.7322C51.5462 13.1357 51.5079 13.5387 51.4255 13.9344ZM39.9045 11.3388H47.5375C47.0515 9.64479 45.5363 8.52457 43.7067 8.52457C41.8485 8.52457 40.3905 9.64479 39.9045 11.3388Z" fill="white"></path>
<path d="M68.3778 5.73773V19.6722H64.6565V17.8416C64.0902 18.5238 63.3682 19.0733 62.5458 19.4482C61.7233 19.8231 60.8221 20.0134 59.9109 20.0046C55.8514 20.0046 52.7925 16.8625 52.7925 12.7095C52.7925 8.55649 55.8514 5.41441 59.9109 5.41441C60.8221 5.40563 61.7233 5.59594 62.5458 5.97082C63.3682 6.34569 64.0902 6.89522 64.6565 7.57744V5.73773H68.3778ZM64.6565 12.7049C64.6565 10.5192 62.9413 8.85248 60.6256 8.85248C58.3386 8.85248 56.6233 10.5192 56.6233 12.7049C56.6233 14.8907 58.3386 16.5574 60.6256 16.5574C62.946 16.5574 64.6565 14.8907 64.6565 12.7049Z" fill="white"></path>
<path d="M85.4687 0V19.6721H81.7523V17.8415C81.1859 18.5237 80.4639 19.0733 79.6415 19.4481C78.819 19.823 77.9178 20.0133 77.0066 20.0046C72.9471 20.0046 69.8882 16.8625 69.8882 12.7095C69.8882 8.55647 72.9471 5.41439 77.0066 5.41439C77.9178 5.40561 78.819 5.59592 79.6415 5.97079C80.4639 6.34567 81.1859 6.89519 81.7523 7.57741V0H85.4687ZM81.7523 12.7049C81.7523 10.5191 80.037 8.85246 77.7213 8.85246C75.4343 8.85246 73.719 10.5191 73.719 12.7049C73.719 14.8907 75.4343 16.5574 77.7213 16.5574C80.037 16.5574 81.7523 14.8907 81.7523 12.7049Z" fill="white"></path>
<path d="M87.1079 15.4918H90.853C90.853 16.3661 91.6248 17.0765 92.5968 17.0765C93.5117 17.0765 94.2264 16.53 94.2264 15.8242C94.2264 14.8679 93.1114 14.4034 91.7964 14.0756C89.6237 13.5838 87.308 12.5182 87.308 9.70399C87.308 6.94442 89.738 5.41437 92.5396 5.41437C95.5414 5.41437 97.7999 7.32694 97.7999 9.70399H94.0548C94.0548 8.96628 93.3973 8.33787 92.5063 8.33787C91.7058 8.33787 91.0483 8.85699 91.0483 9.48541C91.0483 10.3597 92.0775 10.8789 93.5927 11.234C95.8559 11.7805 98 12.8461 98 15.5237C98 18.3697 95.5414 20.0045 92.5682 20.0045C89.4235 20 87.1079 17.9781 87.1079 15.4918Z" fill="white"></path>
</g>
<defs>
<clipPath id="svg1614897449_3106_clip0_452_38965">
<rect width="98" height="20" fill="white"></rect>
</clipPath>
</defs>
</svg>