<svg width="79" height="29" viewBox="0 0 79 29" fill="none" xmlns="http://www.w3.org/2000/svg">
<g clip-path="url(#clip0_101_37)">
<path d="M4.6662 20.2637C4.99775 21.1435 5.45677 21.8958 6.04335 22.5206C6.62992 23.1454 7.32484 23.6236 8.12811 23.9551C8.93146 24.2867 9.80489 24.4524 10.7485 24.4524C11.6666 24.4524 12.5273 24.2802 13.3306 23.9359C14.134 23.5916 14.8352 23.1071 15.4345 22.4823C16.0338 21.8575 16.4992 21.1116 16.8308 20.2445C17.1623 19.3774 17.3281 18.4085 17.3281 17.3373V0.81189H21.3446V27.5891H17.3663V25.1026C16.4738 26.0462 15.4217 26.773 14.2104 27.2831C12.999 27.7931 11.6921 28.0481 10.2895 28.0481C8.86129 28.0481 7.52884 27.7994 6.29194 27.3022C5.05514 26.8049 3.98398 26.0973 3.07872 25.1791C2.17346 24.261 1.45932 23.1582 0.936564 21.8703C0.413722 20.5824 0.152344 19.148 0.152344 17.5668V0.81189H4.16892V17.3373C4.16892 18.4085 4.33465 19.3838 4.6662 20.2637ZM28.2681 0.81189V10.5664C29.1607 9.67387 30.1936 8.96625 31.3667 8.44341C32.5397 7.92057 33.8149 7.65919 35.1919 7.65919C36.6201 7.65919 37.9589 7.92691 39.2085 8.46245C40.4581 8.99799 41.5419 9.72482 42.46 10.6429C43.3781 11.5611 44.105 12.6448 44.6405 13.8944C45.176 15.1441 45.4438 16.4702 45.4438 17.8728C45.4438 19.2754 45.176 20.5951 44.6405 21.8319C44.105 23.0688 43.3781 24.1463 42.46 25.0643C41.5419 25.9824 40.4581 26.7092 39.2085 27.2448C37.9589 27.7803 36.62 28.048 35.1919 28.048C33.8148 28.048 32.5334 27.7867 31.3475 27.2638C30.1617 26.7411 29.1224 26.0334 28.2299 25.1408V27.589H24.4046V0.81189H28.2681ZM28.708 20.5123C29.0523 21.3284 29.5305 22.0424 30.1426 22.6545C30.7546 23.2666 31.4687 23.7511 32.2847 24.1082C33.1008 24.4652 33.9806 24.6437 34.9242 24.6437C35.8423 24.6437 36.7093 24.4652 37.5254 24.1082C38.3414 23.7511 39.0491 23.2666 39.6485 22.6545C40.2478 22.0425 40.7259 21.3284 41.083 20.5123C41.44 19.6962 41.6185 18.8164 41.6185 17.8728C41.6185 16.9292 41.44 16.043 41.083 15.2142C40.7259 14.3854 40.2478 13.665 39.6485 13.0529C39.0491 12.4409 38.3415 11.9627 37.5254 11.6185C36.7093 11.2742 35.8423 11.102 34.9242 11.102C34.0062 11.102 33.1391 11.2741 32.323 11.6185C31.507 11.9628 30.793 12.4409 30.1808 13.0529C29.5688 13.665 29.0843 14.3854 28.7272 15.2142C28.3702 16.043 28.1917 16.9292 28.1917 17.8728C28.1916 18.8164 28.3638 19.6962 28.708 20.5123ZM47.6238 13.9328C48.1338 12.7087 48.8353 11.6312 49.7277 10.7004C50.6202 9.7696 51.6787 9.03642 52.9028 8.50088C54.1269 7.96534 55.453 7.69762 56.8811 7.69762C58.2837 7.69762 59.5844 7.95265 60.783 8.46262C61.9815 8.97268 63.0144 9.68038 63.8814 10.5857C64.7485 11.491 65.4244 12.5621 65.9088 13.799C66.3934 15.0358 66.6357 16.3811 66.6357 17.8347V19.0971H50.7606C50.8882 19.8877 51.1432 20.6209 51.5257 21.2966C51.9083 21.9724 52.3864 22.5589 52.9602 23.0562C53.534 23.5536 54.1843 23.9425 54.9111 24.2229C55.6379 24.5034 56.4093 24.6438 57.2254 24.6438C59.5462 24.6438 61.4206 23.6874 62.8487 21.7747L65.6412 23.8403C64.6721 25.141 63.4736 26.1611 62.0454 26.9006C60.6173 27.6402 59.0106 28.01 57.2255 28.01C55.7719 28.01 54.4139 27.7548 53.1516 27.2449C51.8892 26.7349 50.7926 26.0208 49.8618 25.1026C48.931 24.1845 48.1978 23.1071 47.6623 21.8703C47.1267 20.6335 46.8589 19.2882 46.8589 17.8346C46.8588 16.4575 47.1139 15.1569 47.6238 13.9328ZM52.9984 12.4217C51.9146 13.3271 51.1942 14.532 50.8372 16.0367H62.7339C62.4024 14.532 61.6947 13.3271 60.6108 12.4217C59.527 11.5165 58.2583 11.0638 56.8047 11.0638C55.351 11.0638 54.0823 11.5165 52.9984 12.4217ZM73.8653 12.8616C73.0492 13.7542 72.6412 14.9655 72.6412 16.4957V27.5892H68.7775V8.08003H72.6028V10.49C73.0874 9.69943 73.7186 9.07459 74.4964 8.61557C75.2742 8.15647 76.1986 7.92691 77.2698 7.92691H78.6086V11.5227H77.002C75.7269 11.5228 74.6813 11.9691 73.8653 12.8616Z" fill="white"/>
</g>
<defs>
<clipPath id="clip0_101_37">
<rect width="78.4562" height="27.24" fill="white" transform="translate(0.152344 0.809814)"/>
</clipPath>
</defs>
</svg>
